<?xml version="1.0" encoding="UTF-8"?>
<!DOCTYPE svg PUBLIC "-//W3C//DTD SVG 1.1//EN" "http://www.w3.org/Graphics/SVG/1.1/DTD/svg11.dtd">
<svg xmlns="http://www.w3.org/2000/svg" version="1.1" width="50px" height="50px" style="shape-rendering:geometricPrecision; text-rendering:geometricPrecision; image-rendering:optimizeQuality; fill-rule:evenodd; clip-rule:evenodd" xmlns:xlink="http://www.w3.org/1999/xlink">
<g><path style="opacity:0.828" fill="#000000" d="M -0.5,10.5 C -0.5,8.5 -0.5,6.5 -0.5,4.5C 6.57132,1.73957 8.90465,3.90623 6.5,11C 4.07085,11.7033 1.73752,11.5366 -0.5,10.5 Z"/></g>
<g><path style="opacity:1" fill="#000000" d="M 49.5,5.5 C 49.5,6.83333 49.5,8.16667 49.5,9.5C 36.8333,9.5 24.1667,9.5 11.5,9.5C 11.5,8.16667 11.5,6.83333 11.5,5.5C 24.1667,5.5 36.8333,5.5 49.5,5.5 Z"/></g>
<g><path style="opacity:0.828" fill="#000000" d="M -0.5,27.5 C -0.5,25.5 -0.5,23.5 -0.5,21.5C 6.57132,18.7396 8.90465,20.9062 6.5,28C 4.07085,28.7033 1.73752,28.5366 -0.5,27.5 Z"/></g>
<g><path style="opacity:1" fill="#000000" d="M 49.5,22.5 C 49.5,23.8333 49.5,25.1667 49.5,26.5C 36.8333,26.5 24.1667,26.5 11.5,26.5C 11.5,25.1667 11.5,23.8333 11.5,22.5C 24.1667,22.5 36.8333,22.5 49.5,22.5 Z"/></g>
<g><path style="opacity:0.828" fill="#000000" d="M -0.5,44.5 C -0.5,42.5 -0.5,40.5 -0.5,38.5C 6.57132,35.7396 8.90465,37.9062 6.5,45C 4.07085,45.7033 1.73752,45.5366 -0.5,44.5 Z"/></g>
<g><path style="opacity:1" fill="#000000" d="M 49.5,39.5 C 49.5,40.8333 49.5,42.1667 49.5,43.5C 36.8333,43.5 24.1667,43.5 11.5,43.5C 11.5,42.1667 11.5,40.8333 11.5,39.5C 24.1667,39.5 36.8333,39.5 49.5,39.5 Z"/></g>
</svg>
