<?xml version="1.0" standalone="no"?>
<!DOCTYPE svg PUBLIC "-//W3C//DTD SVG 20010904//EN"
 "http://www.w3.org/TR/2001/REC-SVG-20010904/DTD/svg10.dtd">
<svg version="1.0" xmlns="http://www.w3.org/2000/svg"
 width="24.000000pt" height="24.000000pt" viewBox="0 0 24.000000 24.000000"
 preserveAspectRatio="xMidYMid meet">

<g transform="translate(0.000000,24.000000) scale(0.100000,-0.100000)"
fill="#000000" stroke="none">
<path d="M71 206 c-22 -12 -50 -50 -51 -68 0 -13 68 -9 73 5 3 9 10 7 23 -5
18 -17 18 -19 0 -35 -13 -13 -20 -15 -23 -5 -4 11 -73 18 -73 7 0 -20 33 -63
55 -73 51 -23 107 -7 131 39 46 91 -47 184 -135 135z"/>
</g>
</svg>
