<?xml version="1.0" encoding="UTF-8"?>
<!DOCTYPE svg PUBLIC "-//W3C//DTD SVG 1.1//EN" "http://www.w3.org/Graphics/SVG/1.1/DTD/svg11.dtd">
<svg xmlns="http://www.w3.org/2000/svg" version="1.1" width="96px" height="96px" style="shape-rendering:geometricPrecision; text-rendering:geometricPrecision; image-rendering:optimizeQuality; fill-rule:evenodd; clip-rule:evenodd" xmlns:xlink="http://www.w3.org/1999/xlink">
<g><path style="opacity:0.933" fill="#000000" d="M 41.5,14.5 C 60.1496,14.108 66.3163,22.7747 60,40.5C 51.6667,48.5 43.3333,48.5 35,40.5C 29.978,29.8898 32.1447,21.2231 41.5,14.5 Z"/></g>
<g><path style="opacity:0.928" fill="#000000" d="M 39.5,50.5 C 52.0315,48.6693 62.8648,52.0026 72,60.5C 80.1922,72.7915 77.0255,78.4582 62.5,77.5C 58.8333,77.1667 55.1667,76.8333 51.5,76.5C 49.3056,70.4037 48.639,64.2371 49.5,58C 45.2087,56.7418 44.2087,58.0752 46.5,62C 45.8181,66.9096 44.8181,71.743 43.5,76.5C 35.4162,77.9344 27.4162,77.7677 19.5,76C 18.5415,74.2927 17.8748,72.4594 17.5,70.5C 19.5663,63.1944 23.8996,57.6944 30.5,54C 33.5711,52.7043 36.5711,51.5377 39.5,50.5 Z"/></g>
</svg>
