<?xml version="1.0" standalone="no"?>
<!DOCTYPE svg PUBLIC "-//W3C//DTD SVG 20010904//EN"
 "http://www.w3.org/TR/2001/REC-SVG-20010904/DTD/svg10.dtd">
<svg version="1.0" xmlns="http://www.w3.org/2000/svg"
 width="50.000000pt" height="50.000000pt" viewBox="0 0 50.000000 50.000000"
 preserveAspectRatio="xMidYMid meet">

<g transform="translate(0.000000,50.000000) scale(0.100000,-0.100000)"
fill="#000000" stroke="none">
<path d="M130 399 c-109 -85 -144 -120 -106 -106 14 6 16 -8 16 -128 l0 -135
70 0 70 0 0 100 0 100 70 0 70 0 0 -100 0 -100 70 0 70 0 0 135 c0 115 2 134
15 129 29 -11 15 12 -25 42 -35 26 -40 34 -40 72 0 40 -2 42 -29 42 -19 0 -31
-6 -33 -16 -2 -12 -13 -8 -48 20 -25 20 -47 36 -50 35 -3 0 -57 -40 -120 -90z"/>
<path d="M200 120 l0 -90 50 0 50 0 0 90 0 90 -50 0 -50 0 0 -90z m80 10 c0
-5 -4 -10 -10 -10 -5 0 -10 5 -10 10 0 6 5 10 10 10 6 0 10 -4 10 -10z"/>
</g>
</svg>
