<?xml version="1.0" standalone="no"?>
<!DOCTYPE svg PUBLIC "-//W3C//DTD SVG 20010904//EN"
 "http://www.w3.org/TR/2001/REC-SVG-20010904/DTD/svg10.dtd">
<svg version="1.0" xmlns="http://www.w3.org/2000/svg"
 width="48.000000pt" height="48.000000pt" viewBox="0 0 48.000000 48.000000"
 preserveAspectRatio="xMidYMid meet">

<g transform="translate(0.000000,48.000000) scale(0.100000,-0.100000)"
fill="#000000" stroke="none">
<path d="M192 458 c-6 -6 -12 -18 -12 -25 0 -8 -20 -13 -57 -15 l-58 -3 0 -35
0 -35 138 -3 c89 -2 137 1 137 8 0 6 -48 10 -130 10 -123 0 -130 1 -130 20 0
18 7 20 59 20 54 0 60 2 63 23 2 18 9 22 38 22 29 0 36 -4 38 -22 3 -21 9 -23
63 -23 52 0 59 -2 59 -20 0 -11 -7 -20 -15 -20 -12 0 -15 -26 -17 -152 l-3
-153 -125 0 -125 0 -3 133 c-3 174 -22 176 -22 3 0 -104 3 -133 16 -145 23
-23 245 -23 268 0 13 12 16 41 16 154 0 116 2 139 16 144 10 4 14 16 12 38 -3
32 -4 33 -58 36 -46 2 -57 7 -65 25 -8 16 -20 23 -50 25 -23 2 -46 -3 -53 -10z"/>
<path d="M160 185 c0 -57 4 -95 10 -95 6 0 10 38 10 95 0 57 -4 95 -10 95 -6
0 -10 -38 -10 -95z"/>
<path d="M230 185 c0 -57 4 -95 10 -95 6 0 10 38 10 95 0 57 -4 95 -10 95 -6
0 -10 -38 -10 -95z"/>
<path d="M300 185 c0 -57 4 -95 10 -95 6 0 10 38 10 95 0 57 -4 95 -10 95 -6
0 -10 -38 -10 -95z"/>
</g>
</svg>
