<?xml version="1.0" standalone="no"?>
<!DOCTYPE svg PUBLIC "-//W3C//DTD SVG 20010904//EN"
 "http://www.w3.org/TR/2001/REC-SVG-20010904/DTD/svg10.dtd">
<svg version="1.0" xmlns="http://www.w3.org/2000/svg"
 width="64.000000pt" height="64.000000pt" viewBox="0 0 64.000000 64.000000"
 preserveAspectRatio="xMidYMid meet">

<g transform="translate(0.000000,64.000000) scale(0.100000,-0.100000)"
fill="#000000" stroke="none">
<path d="M50 590 c-19 -19 -20 -33 -20 -270 0 -237 1 -251 20 -270 19 -19 33
-20 270 -20 237 0 251 1 270 20 18 18 20 33 20 190 0 144 -2 170 -15 170 -13
0 -15 -25 -15 -163 0 -113 -4 -167 -12 -175 -17 -17 -479 -17 -496 0 -17 17
-17 479 0 496 8 8 62 12 175 12 138 0 163 2 163 15 0 13 -26 15 -170 15 -157
0 -172 -2 -190 -20z"/>
<path d="M515 582 c-47 -35 -185 -176 -185 -189 0 -6 9 -18 20 -28 14 -13 17
-22 10 -29 -6 -6 -17 -2 -33 12 -19 18 -26 20 -34 10 -19 -25 -42 -97 -33
-103 5 -3 33 5 62 19 40 18 87 58 188 160 119 120 133 137 120 151 -30 30 -72
29 -115 -3z"/>
</g>
</svg>
